<?xml version="1.0" encoding="utf-8"?>
<!-- Generator: Adobe Illustrator 27.0.0, SVG Export Plug-In . SVG Version: 6.00 Build 0)  -->
<svg version="1.1" id="Layer_1" xmlns="http://www.w3.org/2000/svg" xmlns:xlink="http://www.w3.org/1999/xlink" x="0px" y="0px"
	 viewBox="0 0 697.67 192.07" style="enable-background:new 0 0 697.67 192.07;" xml:space="preserve">
<style type="text/css">
	.st0{fill:#616D38;}
	.st1{fill:#D3D4A9;}
</style>
<g>
	<path class="st0" d="M282.77,149.95h-22.53v-13.04c-7.11,9.29-19.37,14.62-32.21,14.62c-25.49,0-44.86-16.01-44.86-46.44V41.07
		h22.33v60.66c0,19.96,10.87,30.23,27.27,30.23c16.6,0,27.47-10.28,27.47-30.23V41.07h22.53V149.95z"/>
	<path class="st0" d="M334.99,150.47h-22.53V41.6h22.53V57.4c6.32-10.87,17.19-17.59,32.61-17.59v23.32h-5.73
		c-16.6,0-26.87,6.92-26.87,30.04V150.47z"/>
	<path class="st0" d="M427.86,152.25c-26.08,0-44.46-15.41-45.45-35.17h23.32c0.79,8.89,9.29,16.2,21.74,16.2
		c13.04,0,19.96-5.53,19.96-13.04c0-21.34-63.23-9.09-63.23-49.01c0-17.39,16.2-31.42,41.89-31.42c24.7,0,40.9,13.24,42.09,34.98
		h-22.53c-0.79-9.49-8.1-16.01-20.35-16.01c-12.05,0-18.38,4.94-18.38,12.25c0,21.93,61.45,9.68,62.64,49.01
		C469.56,138.42,453.55,152.25,427.86,152.25z"/>
	<path class="st0" d="M537.73,39.82c18.38,0,31.02,8.7,37.74,17.59V41.6h22.72v108.88h-22.72v-16.2
		c-6.92,9.29-19.96,17.98-38.14,17.98c-28.26,0-50.98-23.12-50.98-56.71C486.35,61.95,509.07,39.82,537.73,39.82z M542.47,59.38
		c-16.8,0-33,12.65-33,36.16c0,23.52,16.2,37.15,33,37.15c16.99,0,33-13.24,33-36.75C575.47,72.62,559.46,59.38,542.47,59.38z"/>
	<path class="st0" d="M650.35,150.47h-22.53V41.6h22.53V57.4c6.32-10.87,17.19-17.59,32.61-17.59v23.32h-5.73
		c-16.6,0-26.87,6.92-26.87,30.04V150.47z"/>
	<path class="st0" d="M114.69,23.32c5.71,1.04,10.1,4.5,14.89,7.3c4.28,2.5,8.11,5.72,11.3,9.12c3.23,3.46,6.99,7.15,8.16,12.24
		c3.59,0.09,1.07,3.48,2.66,4.92c1.81,1.64,1.71,4.4,1.9,6.68c0.36,4.55-0.21,9.11-1.11,13.59c-0.42,2.1-2.37,1.41-3.56,1.53
		c-1.21,0.12-0.74-1.43-0.8-2.22c-0.62-7.92-3.46-14.71-9.12-20.51c-5.63-5.77-11.54-11.05-18.52-15.15
		c-4.6-2.7-9.68-3.77-14.76-4.29c-7.64-0.79-15.11,0.87-22.39,3.2c-6.86,2.2-13.1,5.61-19.16,9.47c-5.12,3.26-9.76,7.04-13.72,11.56
		c-2.39,2.73-3.84,6.27-6.18,9.05c-6.48,7.68-6.29,17.61-9.36,26.43c-0.07,0.19-0.19,0.46-0.11,0.6c3.16,5.88,2.11,12.7,4.52,18.92
		c2.36,6.09,6.8,10.49,10.04,15.79c1.89,3.1,5.95,4.76,9.09,7.02c5.78,4.16,11.9,7.53,18.63,9.88c5.5,1.93,11.05,1.08,16.65,1.04
		c8.82-0.07,16.47-3.93,24.35-6.97c9.04-3.49,16.85-9.3,24.9-14.54c3.27-2.13,5.89-5.31,8.92-7.88c4.71-4,11.04-4.74,15.51,0.45
		c2.19,2.54,3.21,8.94,1.14,11.46c-4.31,5.23-7.65,11.36-13.09,15.56c-4.61,3.56-9.54,6.74-14.49,9.83c-1.76,1.1-3.33,2.37-5,3.55
		c-5.06,3.58-10.93,5.35-16.7,7.36c-2.61,0.91-5.15,2.15-7.83,2.72c-10.25,2.2-20.55,2.65-31.08,1.84
		c-9.29-0.72-16.93-4.72-24.58-9.22c-3.51-2.06-6.96-4.26-10.57-6.14c-5.72-2.98-9.14-8.27-13.42-12.72
		c-5.97-6.2-9.82-13.84-12.89-21.51c-3.08-7.7-4.88-16.15-3.92-24.75c0.54-4.87-0.54-9.71,0.04-14.62c0.48-4.02,1.92-7.68,3.37-11.3
		c2.11-5.27,4.83-10.28,6.56-15.75c0.84-2.65,2.74-4.96,4.2-7.4c4.39-7.37,10.78-12.48,17.95-17.07c7.55-4.84,16.03-7.16,24.2-10.29
		c9.68-3.71,19.92-3.87,30.01-2.47C105.82,20.27,110.54,21.12,114.69,23.32z"/>
	<path class="st1" d="M130.11,103.99c-4.26,20.07-31.33,34.72-50.31,25.3c-15.2-5.92-17.84-18.45-20.96-32.64
		c1.07-5.17,2.62-10.88,4.6-15.99c1.72-7.66,6.92-12.1,13.66-15.42c8.93-6.47,18.68-6.52,28.42-3.27
		C121.25,67.58,137.85,86.34,130.11,103.99z"/>
</g>
</svg>
